<?xml version="1.0" standalone="no"?>
<!DOCTYPE svg PUBLIC "-//W3C//DTD SVG 20010904//EN"
 "http://www.w3.org/TR/2001/REC-SVG-20010904/DTD/svg10.dtd">
<svg version="1.0" xmlns="http://www.w3.org/2000/svg"
 width="16.000000pt" height="16.000000pt" viewBox="0 0 16.000000 16.000000"
 preserveAspectRatio="xMidYMid meet">
<metadata>
Created by potrace 1.11, written by Peter Selinger 2001-2013
</metadata>
<g transform="translate(0.000000,16.000000) scale(0.020000,-0.020000)"
fill="#000000" stroke="none">
<path d="M290 784 c-120 -36 -230 -141 -268 -257 -16 -47 -20 -82 -18 -145 3
-71 8 -92 39 -156 44 -89 103 -146 195 -189 60 -28 77 -31 162 -32 86 0 101 3
162 32 93 44 151 100 196 191 35 72 37 81 37 172 0 91 -2 100 -38 172 -68 138
-193 220 -342 224 -46 1 -99 -4 -125 -12z"/>
</g>
</svg>
